<?xml version="1.0" encoding="utf-8"?>
<!-- Generator: Adobe Illustrator 25.3.0, SVG Export Plug-In . SVG Version: 6.00 Build 0)  -->
<svg version="1.1" xmlns="http://www.w3.org/2000/svg" xmlns:xlink="http://www.w3.org/1999/xlink" x="0px" y="0px"
	 viewBox="0 0 194 57" style="enable-background:new 0 0 194 57;" xml:space="preserve">
<style type="text/css">
	.st0{fill:#5D87FF;}
	.st1{fill:#FFFFFF;}
	.st2{fill:none;stroke:#000000;stroke-width:2;stroke-linecap:round;stroke-miterlimit:10;}
	.st3{fill:none;stroke:#000000;stroke-width:3.6146;stroke-linecap:round;stroke-miterlimit:10;}
	.st4{fill:none;stroke:#000000;stroke-linecap:round;stroke-miterlimit:10;}
	.st5{font-family:'Poppins-Bold';}
	.st6{font-size:29px;}
</style>
<g id="Calque_1">
</g>
<g id="Calque_2">
	<g>
		<path class="st0" d="M48.01,26.04C49.04,37.08,39.35,47.01,26.32,47C13.3,47.01,3.6,37.08,4.64,26.04
			C5.67,14.97,15.37,6.81,26.32,6.79C37.28,6.81,46.98,14.97,48.01,26.04z"/>
		<g>
			<path class="st1" d="M36.65,26.89H14.74c-0.73,0-1.38-0.49-1.58-1.19L9.44,12.73c-0.19-0.65,0.3-1.29,0.97-1.29H38.5"/>
		</g>
		<g>
			
				<ellipse transform="matrix(0.1619 -0.9868 0.9868 0.1619 -22.1328 48.048)" class="st1" cx="17.22" cy="37.05" rx="4.16" ry="4.16"/>
			<g>
				
					<ellipse transform="matrix(0.1589 -0.9873 0.9873 0.1589 -9.3683 63.1126)" class="st1" cx="32.36" cy="37.05" rx="4.16" ry="4.16"/>
				<circle class="st1" cx="32.36" cy="37.05" r="0.6"/>
			</g>
			<circle class="st4" cx="18.63" cy="37.94" r="4.16"/>
			<path class="st4" d="M17.91,33.78h16.31c1.79,0,3.38-1.13,3.96-2.82l6.72-19.56c0.58-1.69,2.17-2.82,3.96-2.82h4.89"/>
			<circle class="st3" cx="18.63" cy="37.94" r="0.6"/>
			<g>
				<circle class="st4" cx="33.77" cy="37.94" r="4.16"/>
				<circle class="st3" cx="33.77" cy="37.94" r="0.6"/>
			</g>
			<g>
				<path class="st4" d="M39.02,28.51H17.11c-0.73,0-1.38-0.49-1.58-1.19l-3.72-12.97c-0.19-0.65,0.3-1.29,0.97-1.29h28.09"/>
			</g>
			<line class="st4" x1="16.91" y1="16.81" x2="43.04" y2="16.81"/>
			<line class="st4" x1="19.14" y1="22.36" x2="41.13" y2="22.36"/>
		</g>
		<path class="st4" d="M7.52,44.7c0,0,16.01-5.42,37.62,0"/>
	</g>
	<g>
		<text transform="matrix(1 0 0 1 53.2921 37.9952)" class="st0 st5 st6">CashApp</text>
	</g>
</g>
<g id="Calque_3">
</g>
</svg>
